<?xml version="1.0" standalone="no"?>
<!DOCTYPE svg PUBLIC "-//W3C//DTD SVG 20010904//EN"
 "http://www.w3.org/TR/2001/REC-SVG-20010904/DTD/svg10.dtd">
<svg version="1.0" xmlns="http://www.w3.org/2000/svg"
 width="512.000000pt" height="512.000000pt" viewBox="0 0 512.000000 512.000000"
 preserveAspectRatio="xMidYMid meet">

<g transform="translate(0.000000,512.000000) scale(0.100000,-0.100000)"
fill="#000000" stroke="none">
<path d="M2360 4723 c-469 -48 -882 -244 -1211 -575 -614 -616 -782 -1549
-414 -2303 66 -135 165 -295 205 -333 32 -29 75 -28 105 3 35 34 31 64 -19
136 -179 263 -295 585 -321 897 l-8 82 332 0 331 0 0 -32 c0 -18 7 -94 16
-168 24 -210 108 -511 183 -658 l21 -41 -84 -50 c-46 -28 -89 -58 -96 -66 -34
-41 5 -125 58 -125 13 0 63 24 111 54 247 153 533 251 787 271 43 3 89 8 102
11 l22 4 0 -268 c0 -257 1 -270 21 -296 29 -37 89 -37 118 0 20 26 21 39 21
294 l0 268 48 -5 c326 -28 602 -117 859 -276 50 -31 102 -57 115 -57 51 0 85
70 58 120 -5 10 -48 41 -94 69 l-83 51 49 120 c83 204 145 469 163 698 l7 82
330 0 331 0 -8 -82 c-26 -312 -142 -634 -321 -897 -50 -72 -54 -102 -19 -136
30 -31 73 -32 105 -3 40 38 139 198 205 333 346 711 221 1574 -319 2201 -329
383 -777 619 -1278 673 -90 10 -347 13 -428 4z m-177 -247 c-180 -150 -355
-356 -481 -563 l-50 -83 -88 56 c-49 31 -128 88 -177 127 l-88 71 33 29 c240
205 519 346 826 417 42 10 85 19 95 19 10 1 -21 -31 -70 -73z m779 54 c297
-65 586 -211 826 -417 l33 -29 -88 -71 c-93 -75 -240 -173 -260 -173 -6 0 -23
21 -38 48 -113 195 -295 411 -482 573 -57 49 -98 89 -91 89 7 0 52 -9 100 -20z
m-127 -171 c163 -138 294 -286 417 -472 l79 -121 -33 -17 c-118 -60 -409 -134
-575 -146 l-83 -6 0 457 0 457 58 -42 c31 -23 93 -73 137 -110z m-355 -309 l0
-450 -47 0 c-149 1 -478 81 -611 149 l-33 17 85 128 c104 156 197 267 324 387
90 85 258 219 274 219 5 0 8 -202 8 -450z m-1207 -147 c76 -62 271 -196 298
-205 8 -3 1 -27 -21 -78 -52 -118 -118 -329 -144 -462 -20 -101 -46 -300 -46
-355 0 -10 -63 -13 -330 -13 l-330 0 0 38 c1 68 30 244 59 356 67 257 184 487
354 699 39 48 72 87 74 87 2 0 41 -30 86 -67z m2735 -21 c169 -209 291 -453
357 -713 27 -105 55 -278 55 -341 l0 -38 -328 0 -329 0 -12 128 c-22 237 -84
483 -172 685 -21 50 -38 91 -36 93 1 1 30 18 63 38 65 38 185 124 269 194 27
23 52 42 56 42 3 0 38 -39 77 -88z m-2167 -308 c175 -67 368 -112 562 -129
l77 -7 0 -324 0 -324 -480 0 -480 0 0 51 c0 174 82 515 175 724 20 47 28 56
42 50 10 -5 57 -23 104 -41z m1582 3 c98 -223 177 -552 177 -731 l0 -56 -480
0 -480 0 0 324 0 324 78 7 c201 18 396 64 572 135 52 21 100 38 105 39 6 0 18
-18 28 -42z m-943 -1271 l0 -323 -92 -7 c-178 -13 -455 -82 -614 -152 -31 -14
-57 -24 -59 -22 -1 2 -18 41 -38 88 -81 195 -142 444 -154 634 l-6 106 481 0
482 0 0 -324z m1120 272 c-1 -178 -81 -512 -174 -721 l-24 -55 -94 38 c-174
70 -396 122 -576 136 l-92 7 0 323 0 324 480 0 480 0 0 -52z"/>
<path d="M1305 1380 c-225 -28 -497 -91 -716 -166 -209 -71 -190 -54 -284
-255 l-81 -174 -84 -5 c-47 -3 -95 -11 -107 -18 -46 -26 -42 -102 7 -127 25
-13 156 -15 1048 -15 l1020 0 6 -27 c11 -41 64 -111 109 -144 73 -53 122 -61
360 -57 209 3 213 3 269 31 65 32 118 89 145 153 l18 44 1018 0 c891 0 1022 2
1047 15 49 25 53 101 7 127 -12 7 -60 15 -107 18 l-84 5 -81 174 c-93 200 -74
184 -281 254 -239 82 -502 141 -741 167 -158 17 -468 8 -594 -18 -238 -50
-440 -145 -588 -278 l-51 -46 -51 46 c-148 133 -349 228 -588 278 -75 15 -145
20 -321 23 -124 2 -256 0 -295 -5z m535 -167 c172 -25 341 -86 467 -170 32
-21 95 -73 140 -115 66 -62 88 -78 113 -78 25 0 47 16 113 78 89 83 158 132
252 179 357 179 918 167 1531 -33 77 -25 145 -48 151 -52 9 -6 113 -223 113
-237 0 -3 -400 -5 -890 -5 -639 0 -896 -3 -914 -11 -26 -12 -40 -40 -50 -97
-8 -44 -40 -88 -79 -110 -27 -14 -61 -17 -227 -17 -166 0 -200 3 -227 17 -39
22 -71 66 -79 110 -10 57 -24 85 -50 97 -18 8 -275 11 -914 11 -490 0 -890 3
-890 8 0 4 23 57 51 119 l52 112 97 34 c428 154 882 213 1240 160z"/>
</g>
</svg>
