<?xml version="1.0" standalone="no"?>
<!DOCTYPE svg PUBLIC "-//W3C//DTD SVG 20010904//EN"
 "http://www.w3.org/TR/2001/REC-SVG-20010904/DTD/svg10.dtd">
<svg version="1.0" xmlns="http://www.w3.org/2000/svg"
 width="512.000000pt" height="512.000000pt" viewBox="0 0 512.000000 512.000000"
 preserveAspectRatio="xMidYMid meet">

<g transform="translate(0.000000,512.000000) scale(0.100000,-0.100000)"
fill="#000000" stroke="none">
<path d="M905 5100 c-111 -36 -207 -133 -240 -243 -12 -40 -15 -111 -15 -344
l0 -293 -146 0 c-163 0 -206 -9 -260 -53 -62 -51 -74 -91 -74 -253 l0 -141
-42 -6 c-51 -7 -87 -33 -110 -78 -16 -31 -18 -75 -18 -484 0 -502 -1 -496 69
-542 31 -21 45 -23 170 -23 155 0 191 11 223 71 17 31 18 67 18 492 0 498 1
491 -56 536 -15 12 -44 24 -66 27 l-38 7 0 128 c0 175 -6 169 185 169 l145 0
0 -1545 c0 -1541 0 -1544 21 -1600 38 -103 122 -187 219 -222 l50 -18 0 -278
c0 -263 1 -281 21 -316 11 -20 36 -48 56 -61 l36 -25 295 -3 c282 -3 296 -2
338 18 26 13 53 36 66 58 22 36 23 47 28 317 l5 280 775 0 775 0 5 -280 c6
-312 7 -317 78 -365 35 -25 36 -25 330 -28 283 -3 296 -2 338 19 30 14 52 35
69 63 l25 43 0 279 0 279 50 18 c97 35 181 119 219 222 19 52 21 76 21 335 l0
279 -26 20 c-35 27 -57 26 -91 -3 l-28 -24 -5 -279 -5 -280 -28 -41 c-15 -23
-46 -54 -69 -69 l-42 -28 -1616 0 -1616 0 -42 28 c-23 15 -54 46 -69 69 l-28
42 -3 1916 -2 1916 32 54 c26 42 45 60 87 82 l53 28 1588 0 1588 0 53 -28 c39
-20 62 -41 84 -77 l30 -48 5 -1500 5 -1499 24 -19 c30 -25 76 -24 101 1 20 20
20 33 20 1145 l0 1125 145 0 c191 0 185 6 185 -169 l0 -128 -38 -7 c-46 -7
-86 -36 -107 -76 -23 -44 -22 -927 0 -973 31 -64 54 -72 215 -75 138 -3 147
-2 180 20 71 47 70 40 70 543 0 409 -2 453 -18 484 -23 45 -59 71 -110 78
l-42 6 0 141 c0 162 -12 202 -74 253 -54 44 -97 53 -260 53 l-146 0 0 293 c0
326 -5 358 -63 444 -45 65 -119 119 -196 143 -62 20 -95 20 -1655 19 -1542 0
-1593 -1 -1651 -19z m-575 -1895 l0 -415 -90 0 -90 0 0 415 0 415 90 0 90 0 0
-415z m4640 0 l0 -415 -90 0 -90 0 0 415 0 415 90 0 90 0 0 -415z m-3342
-2787 l-3 -263 -265 0 -265 0 -3 263 -2 262 270 0 270 0 -2 -262z m2400 0 l-3
-263 -265 0 -265 0 -3 263 -2 262 270 0 270 0 -2 -262z"/>
<path d="M1610 4802 c-58 -31 -80 -87 -80 -207 0 -85 4 -108 23 -145 36 -71
64 -80 248 -80 143 0 159 2 183 21 36 28 36 80 0 108 -24 19 -40 21 -165 21
l-139 0 0 75 0 75 880 0 880 0 0 -75 0 -75 -590 0 -591 0 -24 -25 c-32 -31
-32 -69 0 -100 l24 -25 608 0 c691 0 657 -4 701 80 18 37 22 60 22 145 0 85
-4 108 -22 145 -45 86 29 80 -1008 80 -866 0 -917 -1 -950 -18z"/>
<path d="M1205 4200 c-74 -24 -147 -79 -192 -144 -65 -95 -64 -74 -61 -892 l3
-739 28 -57 c32 -66 102 -140 158 -168 100 -51 61 -50 1416 -50 896 0 1277 3
1315 11 114 24 214 102 266 208 l27 56 3 739 c3 818 4 797 -61 892 -45 66
-119 120 -196 144 -62 20 -94 20 -1355 19 -1246 0 -1293 -1 -1351 -19z m2696
-158 c42 -21 61 -40 87 -82 l32 -54 0 -716 c0 -673 -2 -717 -19 -756 -24 -53
-91 -109 -146 -123 -62 -16 -2528 -16 -2590 0 -55 14 -122 70 -146 123 -17 39
-19 83 -19 756 l0 716 33 54 c25 42 44 61 86 82 l53 28 1288 0 1288 0 53 -28z"/>
<path d="M1025 1751 c-70 -43 -70 -42 -70 -261 0 -198 0 -198 25 -225 51 -55
54 -55 397 -55 365 0 371 1 411 80 20 40 22 58 22 200 0 142 -2 160 -22 200
-40 79 -45 80 -413 80 -294 0 -322 -2 -350 -19z m635 -261 l0 -130 -280 0
-280 0 0 130 0 130 280 0 280 0 0 -130z"/>
<path d="M1971 1744 c-28 -35 -26 -69 4 -99 l24 -25 561 0 561 0 24 25 c30 30
32 64 4 99 l-20 26 -569 0 -569 0 -20 -26z"/>
<path d="M3390 1752 c-23 -11 -43 -33 -57 -62 -21 -40 -23 -58 -23 -200 0
-142 2 -160 23 -200 39 -79 45 -80 410 -80 343 0 346 0 397 55 25 27 25 27 25
225 0 198 0 198 -25 225 -51 55 -54 55 -397 55 -283 0 -322 -2 -353 -18z m630
-262 l0 -130 -280 0 -280 0 0 130 0 130 280 0 280 0 0 -130z"/>
<path d="M1975 1335 c-30 -30 -32 -64 -4 -99 l20 -26 569 0 569 0 20 26 c28
35 26 69 -4 99 l-24 25 -561 0 -561 0 -24 -25z"/>
</g>
</svg>
