<?xml version="1.0" standalone="no"?>
<!DOCTYPE svg PUBLIC "-//W3C//DTD SVG 20010904//EN"
 "http://www.w3.org/TR/2001/REC-SVG-20010904/DTD/svg10.dtd">
<svg version="1.0" xmlns="http://www.w3.org/2000/svg"
 width="512.000000pt" height="512.000000pt" viewBox="0 0 512.000000 512.000000"
 preserveAspectRatio="xMidYMid meet">

<g transform="translate(0.000000,512.000000) scale(0.100000,-0.100000)"
fill="#000000" stroke="none">
<path d="M2380 4954 c-160 -18 -230 -29 -330 -51 -900 -197 -1601 -880 -1820
-1775 -52 -211 -64 -322 -64 -568 0 -246 12 -357 64 -568 92 -375 262 -706
515 -1000 382 -445 916 -731 1515 -814 123 -17 478 -16 600 1 481 66 908 256
1265 563 440 379 718 886 811 1480 25 157 25 518 1 675 -82 521 -313 985 -671
1347 -369 374 -830 607 -1363 691 -93 15 -448 28 -523 19z m381 -324 c727 -74
1364 -520 1675 -1175 343 -723 247 -1558 -253 -2192 -79 -100 -264 -281 -370
-361 -825 -625 -1990 -544 -2723 188 -339 339 -551 789 -600 1269 -53 532 113
1087 451 1506 438 543 1131 834 1820 765z"/>
<path d="M2605 3829 c-33 -5 -100 -20 -148 -34 -337 -96 -611 -343 -743 -669
l-32 -81 -230 -5 c-253 -5 -256 -6 -306 -74 -29 -39 -29 -133 0 -172 49 -67
57 -69 267 -72 l192 -3 0 -159 0 -159 -192 -3 c-210 -3 -218 -5 -267 -72 -29
-39 -29 -133 0 -172 50 -68 53 -69 306 -74 l230 -5 33 -82 c161 -399 545 -681
968 -709 218 -14 486 71 679 216 129 98 299 306 314 387 21 114 -76 210 -190
189 -49 -9 -77 -35 -139 -129 -121 -181 -307 -301 -526 -337 -282 -47 -623
137 -761 411 l-30 58 374 3 c360 3 376 4 402 24 53 39 69 71 69 134 0 63 -16
95 -69 134 -27 20 -41 21 -450 24 l-423 3 -7 46 c-3 25 -6 76 -6 113 0 37 3
88 6 113 l7 46 423 3 c409 3 423 4 450 24 53 39 69 71 69 134 0 63 -16 95 -69
134 -26 20 -42 21 -402 24 l-374 3 30 58 c70 140 217 280 365 347 240 110 485
89 709 -60 95 -63 157 -127 221 -225 52 -80 83 -108 131 -117 114 -21 211 75
190 189 -9 47 -98 178 -180 264 -235 248 -580 377 -891 332z"/>
</g>
</svg>
