<?xml version="1.0" standalone="no"?>
<!DOCTYPE svg PUBLIC "-//W3C//DTD SVG 20010904//EN"
 "http://www.w3.org/TR/2001/REC-SVG-20010904/DTD/svg10.dtd">
<svg version="1.0" xmlns="http://www.w3.org/2000/svg"
 width="512.000000pt" height="512.000000pt" viewBox="0 0 512.000000 512.000000"
 preserveAspectRatio="xMidYMid meet">

<g transform="translate(0.000000,512.000000) scale(0.100000,-0.100000)"
fill="#000000" stroke="none">
<path d="M2511 5066 c-87 -48 -50 -186 49 -186 51 0 100 49 100 99 0 75 -83
124 -149 87z"/>
<path d="M1293 4785 c-41 -17 -69 -71 -59 -111 8 -32 690 -724 738 -750 40
-21 73 -17 107 12 41 34 50 83 23 126 -32 51 -703 716 -735 727 -35 13 -35 13
-74 -4z"/>
<path d="M3745 4784 c-34 -17 -671 -647 -716 -708 -39 -53 -38 -89 5 -132 37
-37 70 -43 114 -20 48 26 730 718 738 750 10 41 -18 94 -61 112 -42 17 -43 17
-80 -2z"/>
<path d="M2524 4671 c-12 -5 -31 -22 -43 -37 -20 -26 -21 -35 -21 -336 0 -335
2 -352 55 -376 33 -15 57 -15 90 0 53 24 55 41 55 377 l0 311 -27 30 c-30 32
-75 45 -109 31z"/>
<path d="M1004 4079 c-35 -18 -988 -1205 -998 -1244 -6 -23 -6 -43 2 -59 6
-13 126 -123 267 -244 l256 -220 220 -296 c120 -163 219 -299 219 -303 0 -3
-13 -27 -30 -52 -88 -138 -72 -313 40 -435 46 -50 147 -106 192 -106 28 0 28
0 28 -65 0 -41 8 -85 21 -122 42 -114 186 -223 293 -223 37 0 46 -12 46 -61 0
-16 8 -48 17 -71 55 -141 175 -227 327 -233 l61 -2 7 -37 c21 -99 98 -195 196
-243 50 -25 68 -28 152 -28 85 0 101 3 149 28 29 16 75 49 101 73 26 24 50 44
53 44 4 0 27 -15 52 -34 142 -109 337 -99 464 24 50 49 89 125 103 200 l10 57
51 6 c147 18 271 141 299 297 l10 57 51 6 c148 18 271 140 299 298 9 55 12 59
37 59 89 0 209 70 264 153 71 107 83 232 32 344 l-24 52 162 339 163 339 253
218 c139 120 257 229 262 242 5 13 9 35 9 48 0 28 -865 1160 -908 1188 -17 11
-38 16 -59 13 -18 -2 -153 -82 -315 -185 l-285 -181 -367 0 -368 0 -277 -80
c-153 -44 -287 -80 -297 -80 -10 1 -145 35 -299 78 l-280 77 -288 183 c-287
183 -329 203 -373 181z m258 -345 c101 -64 189 -122 196 -129 11 -10 -63 -106
-421 -541 -238 -291 -439 -529 -445 -529 -21 0 -351 289 -344 301 18 29 818
1014 824 1014 4 0 90 -52 190 -116z m3248 -360 c201 -262 365 -479 365 -483 0
-8 -336 -300 -345 -301 -3 0 -183 225 -399 501 -330 420 -391 503 -380 514 17
16 381 245 389 245 3 -1 169 -215 370 -476z m-544 -400 c236 -300 428 -548
427 -552 -3 -12 -264 -557 -269 -561 -3 -3 -262 252 -577 566 -560 559 -573
571 -617 577 -25 3 -162 13 -305 22 -232 16 -263 16 -289 2 -21 -11 -65 -79
-178 -279 -82 -145 -157 -272 -166 -283 -65 -72 -191 -58 -242 26 -24 40 -26
107 -4 151 9 18 97 175 196 350 l180 317 52 15 c28 8 188 55 356 104 l305 89
351 1 351 1 429 -546z m-2191 502 c50 -13 109 -29 133 -36 23 -6 42 -14 42
-19 0 -4 -81 -151 -181 -327 -224 -394 -226 -400 -237 -468 -24 -152 51 -300
190 -373 48 -25 62 -28 158 -28 96 0 110 3 158 28 87 46 121 90 266 346 l138
242 36 -5 c21 -3 121 -11 224 -17 l186 -12 610 -611 c543 -543 612 -616 622
-653 33 -127 -97 -235 -213 -177 -18 9 -187 173 -377 365 l-345 350 -43 -1
c-68 0 -114 -60 -98 -126 5 -17 140 -160 355 -378 378 -380 381 -384 361 -469
-21 -93 -128 -143 -213 -101 -18 8 -138 123 -267 255 l-235 240 -46 -1 c-64 0
-99 -34 -99 -98 l0 -45 244 -246 c203 -204 246 -253 255 -286 30 -115 -66
-213 -186 -190 -31 6 -64 33 -188 156 -140 139 -152 149 -188 149 -73 0 -121
-63 -97 -126 6 -16 73 -92 150 -169 154 -156 169 -182 149 -262 -28 -109 -161
-147 -252 -72 l-37 30 18 32 c13 24 17 56 17 132 0 90 -3 105 -28 155 -47 92
-123 156 -218 184 l-41 12 -2 85 c-2 98 -30 170 -91 238 -46 50 -142 99 -213
108 -48 5 -52 8 -52 33 0 39 -28 128 -54 169 -32 50 -100 109 -155 134 -35 16
-66 21 -134 22 l-87 0 -11 40 c-26 99 -116 197 -215 234 -49 19 -73 22 -144
19 -83 -4 -134 -22 -202 -70 -15 -11 -20 -9 -32 7 -8 11 -94 126 -190 255 -97
129 -175 241 -173 248 4 24 919 1131 931 1127 6 -2 52 -15 101 -29z m-334
-1759 c62 -41 85 -120 55 -190 -22 -52 -174 -193 -222 -206 -77 -21 -150 18
-179 94 -29 74 -16 106 78 203 45 47 96 93 112 103 43 27 113 25 156 -4z m415
-283 c62 -30 93 -96 79 -171 -6 -31 -31 -63 -148 -181 -78 -79 -154 -150 -169
-158 -39 -20 -107 -18 -146 6 -65 40 -92 133 -58 198 20 38 286 299 316 311
38 15 88 13 126 -5z m347 -358 c71 -29 110 -112 89 -184 -17 -54 -292 -326
-344 -340 -86 -23 -176 36 -185 121 -3 25 -2 58 2 74 8 34 276 309 320 329 39
17 78 17 118 0z m311 -439 c69 -39 95 -128 60 -202 -9 -19 -53 -70 -99 -114
-61 -59 -93 -82 -119 -86 -56 -11 -106 3 -142 39 -30 30 -57 94 -49 119 2 7 6
25 10 41 4 18 37 62 83 109 112 116 177 140 256 94z"/>
</g>
</svg>
