<?xml version="1.0" standalone="no"?>
<!DOCTYPE svg PUBLIC "-//W3C//DTD SVG 20010904//EN"
 "http://www.w3.org/TR/2001/REC-SVG-20010904/DTD/svg10.dtd">
<svg version="1.0" xmlns="http://www.w3.org/2000/svg"
 width="512.000000pt" height="512.000000pt" viewBox="0 0 512.000000 512.000000"
 preserveAspectRatio="xMidYMid meet">

<g transform="translate(0.000000,512.000000) scale(0.100000,-0.100000)"
fill="#000000" stroke="none">
<path d="M637 4552 c-10 -10 -17 -32 -17 -49 0 -48 25 -62 114 -65 l79 -3 -90
-110 c-103 -126 -116 -148 -108 -175 15 -47 27 -50 204 -50 154 0 169 2 186
20 22 25 22 65 0 90 -15 17 -31 20 -97 20 -43 0 -78 3 -78 6 0 3 38 52 85 109
119 145 126 162 87 208 -13 15 -35 17 -182 17 -149 0 -169 -2 -183 -18z"/>
<path d="M2385 4410 c-184 -29 -367 -106 -483 -201 -78 -65 -152 -163 -193
-255 l-31 -71 -92 -18 c-197 -38 -404 -15 -549 60 -81 42 -96 43 -127 10 -22
-23 -23 -29 -16 -118 8 -126 37 -233 93 -347 l47 -94 4 -207 c6 -286 -12 -428
-77 -620 -71 -212 -64 -414 22 -627 23 -59 23 -59 4 -83 -68 -82 -120 -307
-86 -370 19 -37 51 -40 129 -13 77 27 203 54 252 54 25 0 29 -3 22 -18 -4 -9
-21 -55 -38 -102 l-31 -85 -3 -357 c-3 -350 -3 -357 17 -377 l21 -21 1258 0
c1207 0 1260 1 1275 18 15 17 17 56 17 363 0 370 -5 411 -55 524 -14 32 -23
60 -20 63 11 12 255 -31 337 -58 134 -45 156 -28 145 119 -7 98 -29 167 -72
231 l-35 52 34 97 c45 130 60 226 54 358 -5 91 -12 128 -47 236 -64 200 -75
283 -75 567 l0 245 47 98 c60 123 87 224 94 353 5 94 4 103 -16 123 -28 28
-51 27 -114 -8 -119 -67 -286 -96 -459 -80 -144 14 -166 23 -189 84 -84 227
-308 390 -629 460 -89 19 -350 28 -435 15z m330 -136 c129 -13 314 -81 417
-152 66 -45 134 -119 167 -181 43 -81 54 -163 50 -376 -5 -214 9 -189 -144
-265 -130 -65 -229 -90 -360 -90 -240 0 -441 106 -569 299 -65 99 -74 101
-170 31 -83 -61 -140 -87 -226 -106 -113 -24 -103 -39 -97 159 5 190 15 236
74 350 50 94 155 191 267 246 172 84 353 110 591 85z m-1565 -537 c64 -19 99
-22 240 -21 91 0 185 5 210 12 24 6 45 10 45 9 1 -1 -1 -114 -3 -252 l-4 -250
-51 -30 c-91 -53 -135 -162 -107 -264 21 -78 99 -145 204 -177 24 -7 33 -19
48 -64 66 -194 218 -392 389 -506 65 -43 69 -48 69 -84 l0 -37 -237 -108
c-340 -154 -390 -180 -469 -245 l-72 -58 -105 -11 c-58 -6 -140 -18 -182 -26
-42 -9 -80 -14 -83 -10 -3 3 2 29 11 59 12 38 31 67 63 97 54 52 54 61 0 190
-79 190 -87 360 -23 551 60 181 87 364 87 590 l0 108 49 -35 c58 -42 83 -44
117 -9 40 39 26 65 -95 189 -116 117 -151 173 -190 299 -27 86 -28 121 -3 111
9 -3 51 -16 92 -28z m2935 1 c-12 -60 -46 -160 -72 -212 -15 -31 -70 -97 -139
-168 -95 -97 -114 -121 -114 -147 0 -37 31 -71 64 -71 14 0 45 16 70 35 26 19
47 35 49 35 1 0 3 -68 4 -152 3 -232 25 -378 84 -546 68 -197 54 -393 -41
-594 -17 -35 -30 -71 -30 -81 0 -10 20 -37 43 -60 38 -36 87 -131 87 -166 0
-5 -35 0 -77 10 -43 11 -145 24 -228 31 l-150 11 -40 37 c-73 68 -137 103
-430 236 -277 125 -290 132 -293 160 -3 27 4 33 74 74 199 117 361 311 439
525 l27 73 45 5 c55 6 116 47 157 105 42 59 49 159 16 226 -24 50 -78 103
-122 118 l-28 10 0 250 0 250 43 -6 c23 -3 98 -8 167 -12 130 -7 259 8 345 40
56 20 57 20 50 -16z m-1870 -379 c22 -27 65 -71 95 -95 263 -218 616 -253 947
-93 45 21 84 39 87 39 3 0 6 -15 6 -33 0 -40 22 -62 70 -71 51 -9 78 -31 91
-75 23 -76 -39 -137 -129 -126 -63 9 -78 -5 -102 -94 -77 -278 -286 -499 -570
-602 -53 -19 -85 -23 -170 -24 -97 0 -111 3 -182 33 -255 110 -444 326 -517
593 -12 41 -28 79 -37 86 -10 7 -42 11 -76 10 -56 -2 -61 0 -89 31 -38 42 -39
89 -3 131 14 17 31 31 37 31 7 0 28 5 48 10 44 12 59 42 59 115 l0 54 38 6
c123 20 193 41 266 80 45 24 83 44 86 44 3 1 23 -22 45 -50z m166 -1294 c86
-31 253 -30 335 2 10 4 14 -4 14 -29 0 -45 24 -66 128 -113 45 -21 82 -39 82
-41 0 -11 -145 -235 -175 -271 -21 -25 -60 -54 -99 -73 -53 -26 -76 -32 -133
-32 -77 1 -140 20 -192 59 -48 37 -63 56 -152 197 l-76 121 101 50 101 50 3
48 c2 26 7 47 11 47 5 0 28 -7 52 -15z m-301 -385 c99 -161 155 -219 256 -267
63 -30 89 -36 162 -41 188 -10 328 68 439 247 26 42 66 106 90 143 l42 67 133
-60 c73 -33 160 -75 193 -92 76 -40 181 -145 222 -222 63 -120 66 -141 71
-472 l4 -303 -171 0 -171 0 0 141 c0 170 -10 199 -72 199 -16 0 -37 -9 -48
-20 -18 -18 -20 -33 -20 -170 l0 -150 -682 2 -683 3 -3 150 c-3 167 -9 185
-68 185 -56 0 -64 -23 -64 -192 l0 -148 -170 0 -170 0 0 288 c0 316 5 355 61
470 34 69 119 167 185 212 55 39 367 181 375 172 3 -4 43 -68 89 -142z"/>
<path d="M2023 2970 c-52 -21 -53 -81 -2 -143 58 -70 161 -98 244 -67 61 23
125 105 125 160 0 56 -85 81 -117 34 -66 -97 -105 -98 -173 -6 -18 25 -48 33
-77 22z"/>
<path d="M2772 2970 c-52 -21 -50 -85 6 -152 52 -62 158 -88 237 -58 60 23
125 103 125 155 0 61 -83 88 -117 39 -66 -97 -105 -98 -173 -6 -19 25 -48 33
-78 22z"/>
<path d="M4259 4352 c-26 -22 -31 -75 -8 -97 26 -26 63 -28 92 -5 34 27 36 68
4 98 -28 27 -57 28 -88 4z"/>
<path d="M4120 1140 c-11 -11 -20 -33 -20 -48 0 -46 31 -65 115 -72 l74 -5
-90 -110 c-50 -60 -94 -120 -100 -133 -12 -30 12 -77 43 -86 13 -3 90 -6 171
-6 144 0 149 1 172 25 30 29 32 55 6 86 -17 21 -30 25 -100 29 l-81 5 95 116
c109 135 118 157 81 193 -25 26 -27 26 -186 26 -147 0 -162 -2 -180 -20z"/>
</g>
</svg>
