<?xml version="1.0" standalone="no"?>
<!DOCTYPE svg PUBLIC "-//W3C//DTD SVG 20010904//EN"
 "http://www.w3.org/TR/2001/REC-SVG-20010904/DTD/svg10.dtd">
<svg version="1.0" xmlns="http://www.w3.org/2000/svg"
 width="901.000000pt" height="200.000000pt" viewBox="0 0 901.000000 200.000000"
 preserveAspectRatio="xMidYMid meet">

<g transform="translate(0.000000,200.000000) scale(0.100000,-0.100000)"
fill="#000000" stroke="none">
<path d="M6575 1969 c-460 -35 -895 -168 -1195 -367 -102 -67 -252 -215 -299
-295 -159 -271 -105 -555 151 -792 484 -448 1548 -620 2434 -395 368 94 642
234 834 429 143 145 210 288 210 451 0 273 -217 536 -595 719 -410 200 -981
292 -1540 250z m542 -100 c764 -62 1366 -368 1477 -748 80 -274 -120 -557
-536 -756 -1000 -478 -2647 -216 -2936 467 -23 55 -26 77 -26 168 0 91 3 113
26 168 196 463 1086 776 1995 701z"/>
<path d="M6580 1809 c-670 -54 -1234 -313 -1388 -637 -35 -72 -37 -83 -37
-172 0 -89 2 -100 37 -172 136 -285 601 -528 1173 -612 789 -116 1644 68 2014
435 275 272 216 575 -160 825 -379 253 -1019 383 -1639 333z m485 -39 c376
-26 683 -100 953 -230 229 -110 380 -238 449 -378 35 -70 38 -83 38 -162 0
-79 -3 -92 -38 -162 -69 -140 -220 -268 -449 -378 -653 -315 -1678 -317 -2327
-4 -266 127 -430 279 -481 443 -25 80 -25 123 0 202 105 337 702 621 1405 668
175 12 281 12 450 1z"/>
<path d="M5905 1501 c3 -10 -24 -104 -64 -220 l-70 -201 153 0 152 0 16 50 16
50 -84 0 c-46 0 -84 4 -84 9 0 7 87 265 107 318 4 10 -12 13 -72 13 -70 0 -76
-2 -70 -19z"/>
<path d="M6342 1498 c0 -13 -52 -110 -116 -216 -64 -106 -116 -195 -116 -198
0 -2 29 -4 63 -4 l64 0 27 50 27 50 65 0 64 0 0 -50 0 -50 61 0 62 0 -7 98
c-3 53 -9 152 -12 220 l-7 122 -87 0 c-84 0 -88 -1 -88 -22z m78 -163 l0 -65
-35 0 c-19 0 -35 3 -35 6 0 6 64 124 68 124 1 0 2 -29 2 -65z"/>
<path d="M6698 1503 c8 -13 -7 -67 -59 -217 -38 -110 -69 -202 -69 -204 0 -1
26 -2 57 0 l56 3 45 135 c32 96 47 129 52 115 4 -11 17 -73 30 -137 l23 -118
56 0 57 0 72 213 c40 116 72 216 72 220 0 4 -26 7 -57 5 l-57 -3 -35 -107
c-19 -60 -38 -108 -41 -108 -3 0 -14 48 -25 108 l-20 107 -83 3 c-77 3 -83 1
-74 -15z"/>
<path d="M7147 1493 c3 -17 -22 -104 -61 -216 -37 -104 -66 -190 -66 -193 0
-2 60 -4 133 -4 152 0 196 14 242 73 37 50 76 166 76 232 2 108 -41 135 -214
135 l-114 0 4 -27z m192 -90 c18 -16 19 -23 11 -61 -12 -50 -47 -127 -63 -140
-18 -14 -107 -25 -107 -13 0 8 17 57 75 219 6 18 60 15 84 -5z"/>
<path d="M7580 1335 c-29 -77 -32 -74 72 -77 l93 -3 -111 -38 c-86 -29 -113
-43 -117 -58 -4 -13 -1 -19 6 -16 7 2 82 27 168 56 l155 51 17 48 c9 26 17 50
17 55 0 4 -65 7 -145 7 l-145 0 -10 -25z"/>
<path d="M6563 980 c-91 -21 -155 -116 -183 -268 -19 -105 22 -164 123 -178
59 -8 143 11 184 42 88 67 145 291 91 359 -39 50 -123 67 -215 45z m111 -122
c21 -35 -37 -187 -80 -207 -54 -24 -104 -9 -104 34 0 35 43 145 67 171 19 20
31 25 65 22 25 -2 45 -10 52 -20z"/>
<path d="M6045 961 c3 -10 -24 -104 -64 -220 l-70 -201 63 0 62 0 24 75 c20
64 27 75 46 75 19 0 26 -11 45 -75 l22 -75 58 0 c33 0 59 4 59 10 0 5 -11 39
-25 76 -29 78 -29 74 -10 74 32 0 85 61 101 117 21 74 13 118 -29 143 -27 17
-51 20 -160 20 -121 0 -128 -1 -122 -19z m203 -104 c2 -10 -4 -29 -12 -42 -14
-21 -24 -25 -66 -25 -28 0 -50 2 -50 5 0 2 7 23 16 45 16 40 17 41 63 38 35
-2 47 -7 49 -21z"/>
<path d="M6841 964 c12 -15 27 -201 28 -361 l1 -63 78 0 77 0 118 213 c64 117
117 216 117 220 0 4 -27 7 -60 7 l-59 0 -78 -152 -78 -153 -7 45 c-3 25 -7 93
-7 153 l-1 107 -71 0 c-64 0 -70 -2 -58 -16z"/>
<path d="M7305 958 c4 -14 -19 -94 -60 -211 -36 -104 -65 -193 -65 -198 0 -6
59 -8 146 -7 l146 3 19 48 19 47 -85 0 c-47 0 -85 4 -85 9 0 4 5 22 11 40 l11
31 77 0 77 0 16 45 17 45 -79 0 -78 0 11 35 10 35 87 0 87 0 12 38 c7 20 15
43 17 50 5 9 -30 12 -155 12 l-161 0 5 -22z"/>
<path d="M7674 962 c5 -14 -83 -288 -129 -405 -7 -16 -2 -18 56 -15 l63 3 25
72 c21 59 30 73 47 73 18 0 25 -12 43 -75 l23 -75 59 0 c32 0 59 3 59 8 0 4
-8 30 -19 57 -33 88 -34 95 -16 95 31 0 83 64 100 123 13 46 14 64 5 92 -18
55 -49 65 -195 65 -117 0 -126 -1 -121 -18z m199 -117 c-3 -39 -27 -55 -81
-55 -40 0 -43 2 -36 23 21 69 21 68 71 65 46 -3 48 -4 46 -33z"/>
<path d="M5743 867 l-152 -51 -20 -54 c-12 -30 -21 -56 -21 -58 0 -2 65 -4
145 -4 l146 0 19 46 c11 25 20 50 20 55 0 5 -42 9 -92 10 l-93 0 100 36 c101
36 125 48 125 64 0 14 -17 10 -177 -44z"/>
<path d="M998 1830 c-142 -17 -261 -73 -274 -127 -4 -15 -22 -45 -40 -66 -19
-20 -34 -42 -34 -47 0 -25 52 -90 75 -95 14 -3 37 -7 51 -10 24 -6 26 -4 20
21 -14 55 34 113 69 84 19 -16 19 -80 1 -105 -8 -11 -21 -16 -33 -13 -17 5
-20 1 -19 -31 1 -27 7 -38 26 -48 43 -22 64 -15 103 32 91 108 216 116 341 22
18 -13 16 -15 -30 -21 -71 -10 -135 -33 -164 -60 -101 -91 -121 -177 -54 -221
24 -15 28 -15 70 5 25 12 52 33 62 47 9 13 27 36 38 51 l22 27 194 -64 c185
-60 198 -63 275 -60 60 3 86 9 100 22 19 16 24 16 84 1 54 -14 90 -15 224 -9
267 13 267 13 311 -16 25 -17 54 -51 79 -94 59 -101 116 -159 193 -197 l67
-33 130 4 c258 9 296 7 345 -19 25 -12 74 -48 110 -80 88 -76 109 -90 143 -90
72 0 135 78 95 118 -9 9 4 12 61 12 97 0 147 16 193 62 29 29 38 46 38 72 0
54 -38 60 -122 21 -59 -28 -122 -32 -180 -11 -21 8 -176 88 -345 179 -441 236
-520 273 -958 449 -544 219 -995 321 -1267 288z m74 -70 c-25 -23 -42 -30 -73
-30 -62 0 -44 -21 42 -50 41 -14 103 -45 137 -68 34 -23 62 -38 62 -33 0 20
-91 108 -129 126 -22 10 -38 22 -35 27 4 6 30 21 58 34 128 60 354 11 477
-103 54 -50 55 -47 7 25 -16 23 -25 42 -20 42 16 0 355 -111 502 -165 457
-167 726 -286 1149 -508 156 -82 302 -155 324 -163 60 -21 148 -18 202 8 41
20 47 21 61 7 12 -13 13 -20 3 -43 -21 -45 -72 -69 -159 -74 -120 -7 -163 12
-274 118 -51 48 -102 92 -114 99 -12 6 -72 16 -134 22 -145 12 -186 28 -243
91 -25 28 -45 54 -45 58 0 4 -11 15 -24 23 -22 15 -20 9 15 -56 71 -128 87
-137 259 -137 155 0 174 -8 272 -115 43 -45 98 -96 123 -112 25 -15 47 -35 50
-43 10 -26 -25 -42 -80 -36 -40 4 -46 3 -30 -6 10 -6 33 -14 50 -18 l30 -7
-27 -7 c-38 -11 -81 13 -179 100 -133 118 -136 119 -379 119 l-205 0 -67 33
c-74 36 -138 100 -187 186 -36 61 -99 136 -143 167 -30 22 -30 22 -19 1 6 -11
16 -24 21 -27 6 -3 10 -14 10 -23 0 -19 3 -19 -260 -24 -146 -2 -171 0 -215
18 -48 19 -50 22 -56 64 -3 25 -9 53 -14 63 -9 21 -8 21 80 2 39 -8 104 -14
145 -14 72 1 73 2 30 10 -141 28 -195 44 -263 78 l-74 39 33 -65 c43 -82 46
-138 8 -174 -23 -21 -34 -24 -107 -23 -66 0 -114 9 -247 47 -90 26 -176 47
-191 47 -29 0 -42 -12 -69 -63 -30 -56 -90 -45 -90 17 0 24 -3 27 -10 16 -15
-23 -12 -61 7 -82 14 -16 15 -18 0 -18 -20 0 -47 38 -47 66 0 34 59 112 104
139 29 17 67 27 125 34 87 9 126 4 230 -33 67 -24 82 -19 24 8 -59 28 -130 94
-139 131 -11 45 -27 28 -19 -22 l7 -46 -34 22 c-53 36 -151 81 -175 81 -13 0
-33 16 -54 43 -53 68 -87 89 -69 41 19 -48 12 -83 -20 -112 -17 -15 -50 -46
-73 -69 -72 -72 -114 -51 -48 24 31 34 41 54 41 80 0 69 -47 116 -92 92 -10
-5 -29 -32 -43 -59 -13 -27 -29 -52 -35 -55 -16 -10 -60 23 -60 44 0 35 48 80
92 87 38 7 98 46 98 65 0 5 -16 9 -35 9 -27 0 -39 -7 -56 -30 -17 -22 -26 -27
-35 -19 -50 41 115 107 271 108 l80 0 -33 -29z m-242 -65 c-13 -16 -40 -20
-40 -7 0 14 12 22 33 22 16 0 17 -3 7 -15z"/>
<path d="M985 1760 c-7 -12 22 -12 50 0 17 7 15 9 -12 9 -17 1 -35 -3 -38 -9z"/>
<path d="M650 385 c0 -151 -20 -166 -222 -173 -127 -4 -138 -6 -138 -23 0 -18
9 -19 123 -19 207 1 296 22 330 79 13 22 17 53 17 125 l0 96 -55 0 -55 0 0
-85z"/>
<path d="M945 330 c-66 -77 -121 -144 -123 -150 -2 -5 9 -10 25 -10 20 0 36
10 56 35 l28 35 159 0 160 0 32 -36 c32 -34 36 -35 92 -32 l59 3 -128 148
-128 147 -56 0 -56 -1 -120 -139z m210 23 l58 -68 -61 -3 c-34 -2 -89 -2 -121
0 l-59 3 56 67 c32 37 60 68 63 68 4 0 33 -30 64 -67z"/>
<path d="M1578 454 c-53 -16 -97 -62 -100 -102 -4 -87 18 -130 84 -158 35 -14
81 -18 251 -22 l207 -4 0 71 0 71 -55 0 -55 0 0 -50 0 -50 -92 0 c-126 1 -177
12 -205 45 -33 38 -32 104 2 137 34 34 60 38 241 38 147 0 154 1 154 20 0 19
-6 20 -192 19 -138 0 -206 -5 -240 -15z"/>
<path d="M2142 367 c5 -153 29 -179 181 -198 142 -18 276 3 330 50 31 29 32
30 35 140 l4 111 -56 0 -56 0 0 -85 c0 -155 -36 -191 -182 -183 -125 7 -148
37 -148 191 l0 77 -56 0 -56 0 4 -103z"/>
<path d="M2865 323 c-126 -145 -128 -148 -99 -151 23 -3 35 3 60 32 l31 36
160 0 159 0 34 -35 c31 -31 39 -35 88 -35 30 0 52 4 50 10 -1 5 -57 72 -123
149 l-120 140 -56 1 -56 0 -128 -147z m218 27 l56 -65 -60 -3 c-32 -2 -87 -2
-121 0 l-61 3 58 68 c32 37 61 66 65 65 4 -2 32 -32 63 -68z"/>
<path d="M3460 319 l0 -150 53 3 52 3 3 53 3 52 66 0 c63 0 71 -3 156 -55 82
-51 94 -55 149 -55 32 0 57 4 54 9 -3 5 -38 28 -78 51 l-72 43 49 13 c57 14
85 43 85 88 0 43 -24 73 -68 86 -20 5 -130 10 -244 10 l-208 0 0 -151z m391
101 c24 -13 26 -72 2 -91 -11 -10 -55 -15 -150 -17 l-133 -4 0 61 0 61 131 0
c72 0 139 -5 150 -10z"/>
</g>
</svg>
